<?xml version="1.0" encoding="utf-8"?>
<!-- Generator: Adobe Illustrator 15.1.0, SVG Export Plug-In . SVG Version: 6.00 Build 0)  -->
<!DOCTYPE svg PUBLIC "-//W3C//DTD SVG 1.1//EN" "http://www.w3.org/Graphics/SVG/1.1/DTD/svg11.dtd">
<svg version="1.1" id="Calque_1" xmlns="http://www.w3.org/2000/svg" xmlns:xlink="http://www.w3.org/1999/xlink" x="0px" y="0px"
	 width="419.53px" height="595.28px" viewBox="0 0 419.53 595.28" enable-background="new 0 0 419.53 595.28" xml:space="preserve">
<g>
	<g>
		<g>
			<linearGradient id="SVGID_1_" gradientUnits="userSpaceOnUse" x1="78.1846" y1="64.2241" x2="120.6943" y2="64.2241">
				<stop  offset="0" style="stop-color:#FFFFFF"/>
				<stop  offset="0.0185" style="stop-color:#F6F6F6"/>
				<stop  offset="0.0806" style="stop-color:#DAD9D9"/>
				<stop  offset="0.1493" style="stop-color:#BFBFBF"/>
				<stop  offset="0.2241" style="stop-color:#A8A7A7"/>
				<stop  offset="0.3069" style="stop-color:#949493"/>
				<stop  offset="0.4014" style="stop-color:#848484"/>
				<stop  offset="0.5143" style="stop-color:#797878"/>
				<stop  offset="0.6642" style="stop-color:#727171"/>
				<stop  offset="1" style="stop-color:#706F6F"/>
			</linearGradient>
			<path fill="url(#SVGID_1_)" d="M117.47,70.57c2.628,1.438,4.18-0.602,2.571-4.746c-1.714-4.02-4.125-5.906-4.425-5.071
				c-0.322,0.901-6.066-2.79-13.902-3.27c-4.226-0.296-8.503,0.437-12.404,2.188c-7.3,3.176-11.086,10.047-11.122,10.395
				c-0.129,0.465,3.79-5.371,11.002-8.125c3.848-1.563,8.006-2.123,12.058-1.695c7.61,0.707,12.335,5.904,11.828,6.817
				C112.701,68.051,114.751,69.258,117.47,70.57z"/>
		</g>
		<g>
			<g>
				<defs>
					
						<rect id="SVGID_2_" x="57.411" y="21.657" transform="matrix(0.5294 0.8484 -0.8484 0.5294 115.6308 -46.0924)" width="83.905" height="119.056"/>
				</defs>
				<clipPath id="SVGID_3_">
					<use xlink:href="#SVGID_2_"  overflow="visible"/>
				</clipPath>
				<g clip-path="url(#SVGID_3_)">
					<defs>
						
							<rect id="SVGID_4_" x="57.411" y="21.657" transform="matrix(0.5294 0.8484 -0.8484 0.5294 115.6308 -46.0924)" width="83.905" height="119.056"/>
					</defs>
					<clipPath id="SVGID_5_">
						<use xlink:href="#SVGID_4_"  overflow="visible"/>
					</clipPath>
					<linearGradient id="SVGID_6_" gradientUnits="userSpaceOnUse" x1="82.3281" y1="106.9116" x2="91.0726" y2="76.416">
						<stop  offset="0" style="stop-color:#FFFFFF"/>
						<stop  offset="0.0411" style="stop-color:#E0EFE3"/>
						<stop  offset="0.0943" style="stop-color:#BBDCC0"/>
						<stop  offset="0.1533" style="stop-color:#93CAA0"/>
						<stop  offset="0.2165" style="stop-color:#69BB85"/>
						<stop  offset="0.2854" style="stop-color:#39AE6F"/>
						<stop  offset="0.3618" style="stop-color:#00A55E"/>
						<stop  offset="0.4487" style="stop-color:#009F53"/>
						<stop  offset="0.5528" style="stop-color:#009B4C"/>
						<stop  offset="0.6908" style="stop-color:#009948"/>
						<stop  offset="1" style="stop-color:#009847"/>
					</linearGradient>
					<path clip-path="url(#SVGID_5_)" fill="url(#SVGID_6_)" d="M77.591,73.289c-0.044-1.195-1.019-1.229-2.128,0.062
						c-2.139,2.54-3.816,5.296-5.025,8.145c-0.613,1.455-0.271,2.534,0.584,2.37c0.055-0.01,0.108-0.02,0.162-0.029
						c0.871-0.15,1.559,1.061,1.733,2.655c1.342,12.143,10.798,22.59,23.69,24.165c1.705,0.206,3.466,0.018,3.829-0.19
						c0.016-0.009,0.03-0.017,0.045-0.025c0.367-0.213-0.747-0.44-2.385-0.718c-12.459-2.027-21.173-12.39-22.045-23.967
						c-0.123-1.535,0.647-2.934,1.513-3.083c0.225-0.041,0.449-0.081,0.674-0.122c0.86-0.164,1.184-1.121,0.807-2.175
						C78.248,78.162,77.73,75.801,77.591,73.289"/>
				</g>
			</g>
		</g>
		<g>
			<g>
				<defs>
					
						<rect id="SVGID_7_" x="56.975" y="27.306" transform="matrix(0.4641 -0.8858 0.8858 0.4641 -23.8987 134.1688)" width="83.907" height="119.056"/>
				</defs>
				<clipPath id="SVGID_8_">
					<use xlink:href="#SVGID_7_"  overflow="visible"/>
				</clipPath>
				<g clip-path="url(#SVGID_8_)">
					<defs>
						
							<rect id="SVGID_9_" x="56.975" y="27.306" transform="matrix(0.4641 -0.8858 0.8858 0.4641 -23.8987 134.1688)" width="83.907" height="119.056"/>
					</defs>
					<clipPath id="SVGID_10_">
						<use xlink:href="#SVGID_9_"  overflow="visible"/>
					</clipPath>
					<linearGradient id="SVGID_11_" gradientUnits="userSpaceOnUse" x1="113.9307" y1="71.5508" x2="116.0299" y2="111.6071">
						<stop  offset="0" style="stop-color:#FFFFFF"/>
						<stop  offset="0.0458" style="stop-color:#D9DEF0"/>
						<stop  offset="0.0987" style="stop-color:#B2BEE0"/>
						<stop  offset="0.1574" style="stop-color:#8DA2D1"/>
						<stop  offset="0.2204" style="stop-color:#6A8BC3"/>
						<stop  offset="0.289" style="stop-color:#4A79B8"/>
						<stop  offset="0.3649" style="stop-color:#2D6BAF"/>
						<stop  offset="0.4515" style="stop-color:#0862A8"/>
						<stop  offset="0.555" style="stop-color:#005CA4"/>
						<stop  offset="0.6924" style="stop-color:#0058A1"/>
						<stop  offset="1" style="stop-color:#0057A0"/>
					</linearGradient>
					<path clip-path="url(#SVGID_10_)" fill="url(#SVGID_11_)" d="M103.13,109.611c-1.011,0.643-0.546,1.501,1.129,1.806
						c3.272,0.56,6.498,0.612,9.567,0.215c1.565-0.207,2.323-1.047,1.749-1.703c-0.036-0.041-0.072-0.083-0.107-0.125
						c-0.57-0.674,0.127-1.88,1.415-2.838c9.796-7.299,14.024-20.741,8.863-32.659c-0.685-1.574-1.736-2.998-2.101-3.207
						c-0.016-0.009-0.03-0.018-0.046-0.025c-0.368-0.209-0.001,0.867,0.589,2.42c4.552,11.773,0.021,24.531-9.526,31.139
						c-1.263,0.884-2.858,0.928-3.425,0.255c-0.148-0.173-0.298-0.346-0.446-0.52c-0.576-0.659-1.565-0.454-2.283,0.404
						C107.001,106.579,105.225,108.221,103.13,109.611"/>
				</g>
			</g>
		</g>
	</g>
	<g>
		<path fill="#009847" d="M93.4,80.079c-0.543,0.538-1.198,0.808-1.966,0.808h-0.523c-0.668,0-1.236,0.242-1.705,0.725
			c-0.469,0.484-0.702,1.061-0.702,1.729v2.078c0,1.406-0.502,2.6-1.504,3.582c-1.002,0.981-2.205,1.473-3.611,1.473h-3.813
			c0-1.007,0.269-1.779,0.808-2.318c0.538-0.538,1.186-0.807,1.943-0.807h0.539c0.678,0,1.248-0.24,1.713-0.719
			c0.463-0.479,0.695-1.057,0.695-1.734v-2.078c0-1.406,0.503-2.6,1.51-3.582s2.213-1.473,3.619-1.473h3.813
			C94.216,78.768,93.944,79.541,93.4,80.079z"/>
		<path fill="#676767" d="M104.294,87.272v3.2h-3.26v-3.215c-1.4-0.369-2.551-1.125-3.45-2.266c-0.9-1.143-1.351-2.436-1.351-3.881
			v-3.35c1.037,0,1.84,0.283,2.408,0.852s0.853,1.246,0.853,2.034v0.464c0,0.877,0.309,1.637,0.927,2.28s1.366,0.964,2.243,0.964
			s1.623-0.32,2.236-0.964c0.612-0.644,0.919-1.403,0.919-2.28v-0.464c0-0.788,0.285-1.466,0.853-2.034
			c0.568-0.568,1.371-0.852,2.408-0.852v3.35c0,1.436-0.449,2.729-1.347,3.881C106.837,86.143,105.69,86.903,104.294,87.272z"/>
		<path fill="#0057A0" d="M117.422,90.473c-1.765,0-3.275-0.618-4.531-1.854c-1.257-1.236-1.885-2.731-1.885-4.486
			s0.628-3.255,1.885-4.501c1.256-1.246,2.767-1.869,4.531-1.869h3.903c0,1.006-0.27,1.779-0.808,2.317s-1.187,0.808-1.944,0.808
			h-1.151c-0.878,0-1.628,0.321-2.251,0.965c-0.623,0.643-0.935,1.402-0.935,2.28s0.312,1.633,0.935,2.266
			c0.623,0.634,1.373,0.95,2.251,0.95h1.151c0.758,0,1.406,0.269,1.944,0.807c0.538,0.539,0.808,1.312,0.808,2.318H117.422z"/>
	</g>
</g>
<g>
	<g>
		<g>
			<linearGradient id="SVGID_12_" gradientUnits="userSpaceOnUse" x1="99.9985" y1="273.1641" x2="343.3291" y2="273.1641">
				<stop  offset="0" style="stop-color:#FFFFFF"/>
				<stop  offset="0.0185" style="stop-color:#F6F6F6"/>
				<stop  offset="0.0806" style="stop-color:#DAD9D9"/>
				<stop  offset="0.1493" style="stop-color:#BFBFBF"/>
				<stop  offset="0.2241" style="stop-color:#A8A7A7"/>
				<stop  offset="0.3069" style="stop-color:#949493"/>
				<stop  offset="0.4014" style="stop-color:#848484"/>
				<stop  offset="0.5143" style="stop-color:#797878"/>
				<stop  offset="0.6642" style="stop-color:#727171"/>
				<stop  offset="1" style="stop-color:#706F6F"/>
			</linearGradient>
			<path fill="url(#SVGID_12_)" d="M336.942,309.654c5.221,3.006,7.952-1.049,5.444-9.187
				c-5.699-17.888-13.931-34.157-24.086-48.367c-4.599-6.405-10.095-7.813-11.678-3.735c-0.269,0.673-0.536,1.346-0.804,2.019
				c-1.672,4.096-8.659,3.83-15.891,0.302c-60.167-29.302-136.329-15.573-180.65,40.248c-5.354,6.762-9.208,14.729-9.264,16.828
				c-0.005,0.302-0.01,0.604-0.015,0.905c-0.044,2.12,3.899-2.007,9.378-8.294c45.168-52.462,118.722-62.974,174.857-33.173
				c6.83,3.583,10.735,10.541,9.067,14.616c-0.614,1.544-1.229,3.089-1.845,4.634c-1.595,4.091,1.614,7.988,7.105,9.127
				C311.57,298.252,324.473,302.775,336.942,309.654z"/>
		</g>
		<g>
			<g>
				<defs>
					<polygon id="SVGID_13_" points="64.514,728.645 -175.363,344.264 370.044,3.886 609.924,388.267 					"/>
				</defs>
				<clipPath id="SVGID_14_">
					<use xlink:href="#SVGID_13_"  overflow="visible"/>
				</clipPath>
				<g clip-path="url(#SVGID_14_)">
					<defs>
						<polygon id="SVGID_15_" points="64.514,728.645 -175.363,344.264 370.044,3.886 609.924,388.267 						"/>
					</defs>
					<clipPath id="SVGID_16_">
						<use xlink:href="#SVGID_15_"  overflow="visible"/>
					</clipPath>
					<linearGradient id="SVGID_17_" gradientUnits="userSpaceOnUse" x1="125.2861" y1="505.1875" x2="172.5067" y2="340.5099">
						<stop  offset="0" style="stop-color:#FFFFFF"/>
						<stop  offset="0.0411" style="stop-color:#E0EFE3"/>
						<stop  offset="0.0943" style="stop-color:#BBDCC0"/>
						<stop  offset="0.1533" style="stop-color:#93CAA0"/>
						<stop  offset="0.2165" style="stop-color:#69BB85"/>
						<stop  offset="0.2854" style="stop-color:#39AE6F"/>
						<stop  offset="0.3618" style="stop-color:#00A55E"/>
						<stop  offset="0.4487" style="stop-color:#009F53"/>
						<stop  offset="0.5528" style="stop-color:#009B4C"/>
						<stop  offset="0.6908" style="stop-color:#009948"/>
						<stop  offset="1" style="stop-color:#009847"/>
					</linearGradient>
					<path clip-path="url(#SVGID_16_)" fill="url(#SVGID_17_)" d="M99.706,323.625c-0.237-6.455-5.502-6.634-11.492,0.332
						c-11.549,13.715-20.608,28.598-27.136,43.98c-3.313,7.857-1.468,13.685,3.153,12.798c0.295-0.053,0.585-0.105,0.875-0.158
						c4.704-0.812,8.417,5.728,9.36,14.338c7.246,65.571,58.309,121.988,127.929,130.491c9.207,1.116,18.715,0.093,20.677-1.023
						c0.085-0.053,0.165-0.097,0.243-0.137c1.982-1.151-4.033-2.386-12.878-3.885c-67.278-10.946-114.334-66.897-119.043-129.416
						c-0.664-8.291,3.496-15.841,8.169-16.649c1.213-0.22,2.426-0.437,3.639-0.659c4.646-0.885,6.392-6.053,4.355-11.742
						C103.254,349.939,100.459,337.188,99.706,323.625"/>
				</g>
			</g>
		</g>
		<g>
			<g>
				<defs>
					<polygon id="SVGID_18_" points="604.805,345.266 394.539,746.627 -174.946,448.273 35.321,46.921 					"/>
				</defs>
				<clipPath id="SVGID_19_">
					<use xlink:href="#SVGID_18_"  overflow="visible"/>
				</clipPath>
				<g clip-path="url(#SVGID_19_)">
					<defs>
						<polygon id="SVGID_20_" points="604.805,345.266 394.539,746.627 -174.946,448.273 35.321,46.921 						"/>
					</defs>
					<clipPath id="SVGID_21_">
						<use xlink:href="#SVGID_20_"  overflow="visible"/>
					</clipPath>
					<linearGradient id="SVGID_22_" gradientUnits="userSpaceOnUse" x1="295.9375" y1="314.2393" x2="307.2735" y2="530.543">
						<stop  offset="0" style="stop-color:#FFFFFF"/>
						<stop  offset="0.0458" style="stop-color:#D9DEF0"/>
						<stop  offset="0.0987" style="stop-color:#B2BEE0"/>
						<stop  offset="0.1574" style="stop-color:#8DA2D1"/>
						<stop  offset="0.2204" style="stop-color:#6A8BC3"/>
						<stop  offset="0.289" style="stop-color:#4A79B8"/>
						<stop  offset="0.3649" style="stop-color:#2D6BAF"/>
						<stop  offset="0.4515" style="stop-color:#0862A8"/>
						<stop  offset="0.555" style="stop-color:#005CA4"/>
						<stop  offset="0.6924" style="stop-color:#0058A1"/>
						<stop  offset="1" style="stop-color:#0057A0"/>
					</linearGradient>
					<path clip-path="url(#SVGID_21_)" fill="url(#SVGID_22_)" d="M237.615,519.764c-5.459,3.468-2.947,8.108,6.098,9.756
						c17.67,3.015,35.088,3.301,51.664,1.16c8.451-1.12,12.545-5.655,9.443-9.197c-0.195-0.225-0.391-0.453-0.58-0.677
						c-3.08-3.639,0.686-10.156,7.643-15.324c52.896-39.414,75.73-112.005,47.86-176.361c-3.696-8.501-9.378-16.189-11.343-17.318
						c-0.083-0.049-0.162-0.095-0.25-0.137c-1.986-1.129-0.004,4.683,3.182,13.067c24.578,63.576,0.109,132.467-51.442,168.146
						c-6.819,4.777-15.435,5.01-18.493,1.38c-0.803-0.936-1.609-1.863-2.412-2.804c-3.111-3.563-8.451-2.456-12.328,2.185
						C258.52,503.395,248.926,512.254,237.615,519.764"/>
				</g>
			</g>
		</g>
	</g>
	<g>
		<path fill="#009847" d="M185.076,360.291c-2.932,2.904-6.471,4.361-10.615,4.361h-2.826c-3.608,0-6.677,1.308-9.208,3.913
			c-2.531,2.615-3.791,5.727-3.791,9.334v11.221c0,7.594-2.711,14.039-8.121,19.344c-5.412,5.3-11.909,7.952-19.503,7.952h-20.593
			c0-5.438,1.45-9.609,4.362-12.519c2.907-2.906,6.402-4.356,10.494-4.356h2.911c3.661,0,6.739-1.298,9.25-3.882
			c2.499-2.584,3.753-5.705,3.753-9.366v-11.221c0-7.594,2.716-14.039,8.154-19.343c5.437-5.305,11.949-7.952,19.543-7.952h20.593
			C189.479,353.209,188.014,357.386,185.076,360.291z"/>
		<path fill="#676767" d="M243.9,399.134v17.282h-17.602v-17.361c-7.563-1.992-13.774-6.073-18.631-12.234
			c-4.862-6.17-7.292-13.15-7.292-20.955v-18.088c5.599,0,9.934,1.529,13.003,4.599c3.069,3.067,4.604,6.729,4.604,10.984v2.505
			c0,4.735,1.668,8.838,5.005,12.313c3.338,3.474,7.376,5.205,12.114,5.205c4.734,0,8.762-1.731,12.076-5.205
			c3.305-3.476,4.961-7.578,4.961-12.313v-2.505c0-4.256,1.541-7.917,4.604-10.984c3.069-3.069,7.404-4.599,13.006-4.599v18.088
			c0,7.752-2.426,14.732-7.273,20.955C257.635,393.034,251.441,397.142,243.9,399.134z"/>
		<path fill="#0057A0" d="M314.791,416.416c-9.527,0-17.686-3.338-24.469-10.014c-6.785-6.677-10.178-14.751-10.178-24.227
			c0-9.477,3.393-17.576,10.178-24.307c6.783-6.728,14.941-10.092,24.469-10.092h21.08c0,5.432-1.457,9.608-4.363,12.514
			c-2.904,2.904-6.406,4.361-10.498,4.361h-6.219c-4.74,0-8.789,1.733-12.154,5.21c-3.363,3.47-5.045,7.571-5.045,12.313
			c0,4.741,1.682,8.816,5.045,12.234c3.365,3.423,7.414,5.131,12.154,5.131h6.219c4.092,0,7.594,1.45,10.498,4.356
			c2.906,2.909,4.363,7.081,4.363,12.519H314.791z"/>
	</g>
</g>
</svg>
